<?xml version="1.0" encoding="UTF-8" standalone="no"?><svg width="56px" height="8px" viewBox="0 0 56 8" version="1.1" xmlns="http://www.w3.org/2000/svg" xmlns:xlink="http://www.w3.org/1999/xlink">        <title>9E52EBFC-3E8B-4994-89A8-84DE9AA91A7D</title>        <defs/>    <g id="Page-1" stroke="none" stroke-width="1" fill="none" fill-rule="evenodd">        <g id="KontentApps" transform="translate(-692.000000, -838.000000)" fill="#444950">            <path d="M696,846 C698.209139,846 700,844.209139 700,842 C700,839.790861 698.209139,838 696,838 C693.790861,838 692,839.790861 692,842 C692,844.209139 693.790861,846 696,846 Z M712,846 C714.209139,846 716,844.209139 716,842 C716,839.790861 714.209139,838 712,838 C709.790861,838 708,839.790861 708,842 C708,844.209139 709.790861,846 712,846 Z M728,846 C730.209139,846 732,844.209139 732,842 C732,839.790861 730.209139,838 728,838 C725.790861,838 724,839.790861 724,842 C724,844.209139 725.790861,846 728,846 Z M744,846 C746.209139,846 748,844.209139 748,842 C748,839.790861 746.209139,838 744,838 C741.790861,838 740,839.790861 740,842 C740,844.209139 741.790861,846 744,846 Z" id="Divider"/>        </g>    </g></svg>