<?xml version="1.0" encoding="UTF-8" standalone="no"?><svg width="18px" height="22px" viewBox="0 0 18 22" version="1.1" xmlns="http://www.w3.org/2000/svg" xmlns:xlink="http://www.w3.org/1999/xlink">        <title>8C629542-E93E-4C29-A144-7606FF8AD5F7</title>        <defs>        <linearGradient x1="2.92814961%" y1="0%" x2="100%" y2="100%" id="linearGradient-1">            <stop stop-color="#DDFF28" offset="0%"/>            <stop stop-color="#0DE1DE" offset="100%"/>        </linearGradient>    </defs>    <g id="Page-1" stroke="none" stroke-width="1" fill="none" fill-rule="evenodd">        <g id="Trym" transform="translate(-970.000000, -662.000000)" fill="url(#linearGradient-1)">            <g id="Group" transform="translate(250.000000, 180.000000)">                <g id="Dark-and-Light" transform="translate(720.000000, 482.000000)">                    <path d="M15.3675,6.44847229 L9,0 L2.6325,6.44847229 C-0.8775,10.0031072 -0.8775,15.7793889 2.6325,19.3340238 C4.3875,21.1113413 6.69375,22 9,22 C11.30625,22 13.6125,21.1113413 15.3675,19.3340238 C18.8775,15.7793889 18.8775,10.0031072 15.3675,6.44847229 L15.3675,6.44847229 Z M9,19.7327809 C7.2,19.7327809 5.50125,19.0264112 4.23,17.7276023 C2.9475,16.4287934 2.25,14.7198343 2.25,12.8969446 C2.25,11.0740549 2.9475,9.35370274 4.23,8.0662869 L9,3.22423615 L9,19.7327809 L9,19.7327809 Z" id="Dark-and-Light-Icon"/>                </g>            </g>        </g>    </g></svg>