<?xml version="1.0" encoding="UTF-8" standalone="no"?><svg width="22px" height="22px" viewBox="0 0 22 22" version="1.1" xmlns="http://www.w3.org/2000/svg" xmlns:xlink="http://www.w3.org/1999/xlink">        <title>3E3B710A-4555-4233-BAAD-35457247F48D</title>        <defs>        <linearGradient x1="2.92814961%" y1="0%" x2="100%" y2="100%" id="linearGradient-1">            <stop stop-color="#DDFF28" offset="0%"/>            <stop stop-color="#0DE1DE" offset="100%"/>        </linearGradient>    </defs>    <g id="Page-1" stroke="none" stroke-width="1" fill="none" fill-rule="evenodd">        <g id="Trym" transform="translate(-448.000000, -880.000000)" fill="url(#linearGradient-1)">            <g id="Group" transform="translate(250.000000, 180.000000)">                <g id="Convert" transform="translate(0.000000, 700.000000)">                    <path d="M206.404,6.204 C206.657,5.654 206.8,5.049 206.8,4.4 C206.8,1.969 204.831,0 202.4,0 C199.969,0 198,1.969 198,4.4 C198,6.831 199.969,8.8 202.4,8.8 C203.049,8.8 203.654,8.657 204.204,8.404 L206.8,11 L204.204,13.596 C203.654,13.343 203.049,13.2 202.4,13.2 C199.969,13.2 198,15.169 198,17.6 C198,20.031 199.969,22 202.4,22 C204.831,22 206.8,20.031 206.8,17.6 C206.8,16.951 206.657,16.346 206.404,15.796 L209,13.2 L216.7,20.9 L220,20.9 L220,19.8 L206.404,6.204 L206.404,6.204 Z M202.4,6.6 C201.19,6.6 200.2,5.621 200.2,4.4 C200.2,3.179 201.19,2.2 202.4,2.2 C203.61,2.2 204.6,3.179 204.6,4.4 C204.6,5.621 203.61,6.6 202.4,6.6 L202.4,6.6 Z M202.4,19.8 C201.19,19.8 200.2,18.821 200.2,17.6 C200.2,16.379 201.19,15.4 202.4,15.4 C203.61,15.4 204.6,16.379 204.6,17.6 C204.6,18.821 203.61,19.8 202.4,19.8 L202.4,19.8 Z M209,11.55 C208.692,11.55 208.45,11.308 208.45,11 C208.45,10.692 208.692,10.45 209,10.45 C209.308,10.45 209.55,10.692 209.55,11 C209.55,11.308 209.308,11.55 209,11.55 L209,11.55 Z M216.7,1.1 L210.1,7.7 L212.3,9.9 L220,2.2 L220,1.1 L216.7,1.1 L216.7,1.1 Z" id="Convert-Icon"/>                </g>            </g>        </g>    </g></svg>