<?xml version="1.0" encoding="UTF-8" standalone="no"?><svg width="22px" height="22px" viewBox="0 0 22 22" version="1.1" xmlns="http://www.w3.org/2000/svg" xmlns:xlink="http://www.w3.org/1999/xlink">        <title>8C2C6F0F-467A-44E8-A807-605D234990C6</title>        <defs>        <linearGradient x1="2.92814961%" y1="0%" x2="100%" y2="100%" id="linearGradient-1">            <stop stop-color="#DDFF28" offset="0%"/>            <stop stop-color="#0DE1DE" offset="100%"/>        </linearGradient>    </defs>    <g id="Page-1" stroke="none" stroke-width="1" fill="none" fill-rule="evenodd">        <g id="Trym" transform="translate(-970.000000, -850.000000)" fill="url(#linearGradient-1)">            <g id="Group" transform="translate(250.000000, 180.000000)">                <g id="Dimensions" transform="translate(720.000000, 670.000000)">                    <path d="M16,14 L18,14 L18,6 C18,4.9 17.1,4 16,4 L8,4 L8,6 L16,6 L16,14 L16,14 Z M6,16 L6,0 L4,0 L4,4 L0,4 L0,6 L4,6 L4,16 C4,17.1 4.9,18 6,18 L16,18 L16,22 L18,22 L18,18 L22,18 L22,16 L6,16 L6,16 Z" id="Dimensions-Icon"/>                </g>            </g>        </g>    </g></svg>