<?xml version="1.0" encoding="UTF-8" standalone="no"?><svg width="18px" height="23px" viewBox="0 0 18 23" version="1.1" xmlns="http://www.w3.org/2000/svg" xmlns:xlink="http://www.w3.org/1999/xlink">        <title>DF04952C-45CE-4735-B18E-E9B44C003CDD</title>        <defs>        <linearGradient x1="2.92814961%" y1="0%" x2="100%" y2="100%" id="linearGradient-1">            <stop stop-color="#DDFF28" offset="0%"/>            <stop stop-color="#0DE1DE" offset="100%"/>        </linearGradient>    </defs>    <g id="Page-1" stroke="none" stroke-width="1" fill="none" fill-rule="evenodd">        <g id="Trym" transform="translate(-452.000000, -721.000000)" fill="url(#linearGradient-1)">            <g id="Group" transform="translate(250.000000, 180.000000)">                <g id="Open-SVG" transform="translate(0.000000, 541.000000)">                    <path d="M213.25,0 L204.25,0 C203.0125,0 202.01125,1.035 202.01125,2.3 L202,20.7 C202,21.965 203.00125,23 204.23875,23 L217.75,23 C218.9875,23 220,21.965 220,20.7 L220,6.9 L213.25,0 L213.25,0 Z M206.5,16.1 L215.5,16.1 L215.5,18.4 L206.5,18.4 L206.5,16.1 Z M206.5,11.5 L215.5,11.5 L215.5,13.8 L206.5,13.8 L206.5,11.5 Z M212.125,8.05 L212.125,1.725 L218.3125,8.05 L212.125,8.05 L212.125,8.05 Z" id="Open-SVG-Icon"/>                </g>            </g>        </g>    </g></svg>