<?xml version="1.0" encoding="UTF-8" standalone="no"?><svg width="114px" height="16px" viewBox="0 0 114 16" version="1.1" xmlns="http://www.w3.org/2000/svg" xmlns:xlink="http://www.w3.org/1999/xlink">        <title>2025C8C5-5C76-4CA2-BD32-3C0B2661118E</title>        <defs/>    <g id="Page-1" stroke="none" stroke-width="1" fill="none" fill-rule="evenodd">        <g id="Trym" transform="translate(-663.000000, -75.000000)" fill="#037DFF">            <path d="M663,87.3076923 L663,75 L666.495283,75 L666.495283,79.68039 L670.366981,75 L674.310377,75 L669.685849,80.5124594 L674.633019,87.3076923 L670.617925,87.3076923 L667.463208,82.7833153 L666.495283,83.7540628 L666.495283,87.3076923 L663,87.3076923 Z M679.132075,87.4810401 C678.283644,87.4810401 677.539783,87.3510306 676.900472,87.0910076 C676.26116,86.8309846 675.72343,86.4842925 675.287264,86.0509209 C674.851098,85.6175493 674.522485,85.1148458 674.301415,84.5427952 C674.080345,83.9707447 673.969811,83.3727008 673.969811,82.7486457 C673.969811,82.1245906 674.080345,81.5265467 674.301415,80.9544962 C674.522485,80.3824457 674.851098,79.8797421 675.287264,79.4463705 C675.72343,79.0129989 676.26116,78.6663068 676.900472,78.4062839 C677.539783,78.1462609 678.283644,78.0162514 679.132075,78.0162514 C679.968558,78.0162514 680.709431,78.1462609 681.354717,78.4062839 C682.000003,78.6663068 682.540721,79.0129989 682.976887,79.4463705 C683.413052,79.8797421 683.741666,80.3824457 683.962736,80.9544962 C684.183806,81.5265467 684.29434,82.1245906 684.29434,82.7486457 C684.29434,83.3727008 684.183806,83.9707447 683.962736,84.5427952 C683.741666,85.1148458 683.413052,85.6175493 682.976887,86.0509209 C682.540721,86.4842925 682.000003,86.8309846 681.354717,87.0910076 C680.709431,87.3510306 679.968558,87.4810401 679.132075,87.4810401 L679.132075,87.4810401 Z M677.465094,82.7486457 C677.465094,83.3611443 677.620439,83.840735 677.931132,84.1874323 C678.241825,84.5341296 678.642136,84.7074756 679.132075,84.7074756 C679.622015,84.7074756 680.022325,84.5341296 680.333019,84.1874323 C680.643712,83.840735 680.799057,83.3611443 680.799057,82.7486457 C680.799057,82.1361472 680.643712,81.6565564 680.333019,81.3098592 C680.022325,80.9631619 679.622015,80.7898158 679.132075,80.7898158 C678.642136,80.7898158 678.241825,80.9631619 677.931132,81.3098592 C677.620439,81.6565564 677.465094,82.1361472 677.465094,82.7486457 L677.465094,82.7486457 Z M694.977358,87.3076923 L691.571698,87.3076923 L691.571698,82.176598 C691.571698,81.7258916 691.467139,81.3994232 691.258019,81.1971831 C691.048898,80.994943 690.80692,80.8938245 690.532075,80.8938245 C690.245282,80.8938245 689.940568,81.0151667 689.617925,81.2578548 C689.295281,81.5005429 689.05629,81.8125658 688.900943,82.1939328 L688.900943,87.3076923 L685.495283,87.3076923 L685.495283,78.1895991 L688.560377,78.1895991 L688.560377,79.5417118 C688.89497,79.044779 689.363991,78.6663068 689.967453,78.4062839 C690.570915,78.1462609 691.284902,78.0162514 692.109434,78.0162514 C692.75472,78.0162514 693.265564,78.1289263 693.641981,78.3542795 C694.018398,78.5796328 694.305188,78.8598755 694.502358,79.1950163 C694.699529,79.530157 694.827987,79.8884055 694.887736,80.2697725 C694.947485,80.6511395 694.977358,80.9978316 694.977358,81.3098592 L694.977358,87.3076923 Z M703.240566,86.8049837 C702.762576,87.0014455 702.251732,87.1661243 701.708019,87.2990249 C701.164305,87.4319255 700.629562,87.4983749 700.103774,87.4983749 C699.721382,87.4983749 699.35692,87.4521493 699.010377,87.3596966 C698.663835,87.267244 698.362108,87.1170108 698.105189,86.9089924 C697.848269,86.700974 697.645127,86.4293986 697.495755,86.0942579 C697.346383,85.7591171 697.271698,85.3430866 697.271698,84.8461538 L697.271698,80.6684724 L696.106604,80.6684724 L696.106604,78.1895991 L697.271698,78.1895991 L697.271698,75.3293608 L700.677358,75.3293608 L700.677358,78.1895991 L702.523585,78.1895991 L702.523585,80.6684724 L700.677358,80.6684724 L700.677358,83.6847237 C700.677358,83.9851947 700.743081,84.1960991 700.874528,84.3174431 C701.005975,84.4387872 701.185219,84.4994583 701.412264,84.4994583 C701.579561,84.4994583 701.770754,84.4734564 701.985849,84.4214518 C702.200944,84.3694472 702.416037,84.2972197 702.631132,84.2047671 L703.240566,86.8049837 Z M708.743396,87.4810401 C707.918864,87.4810401 707.183965,87.3568088 706.538679,87.1083424 C705.893393,86.859876 705.352675,86.5218512 704.916509,86.0942579 C704.480344,85.6666645 704.148743,85.1755174 703.921698,84.6208017 C703.694653,84.0660861 703.581132,83.4824877 703.581132,82.8699892 C703.581132,82.2112643 703.691666,81.5872185 703.912736,80.9978332 C704.133806,80.4084478 704.462419,79.8941878 704.898585,79.4550379 C705.334751,79.015888 705.872481,78.6663068 706.511792,78.4062839 C707.151104,78.1462609 707.894964,78.0162514 708.743396,78.0162514 C709.579878,78.0162514 710.320751,78.1462609 710.966038,78.4062839 C711.611324,78.6663068 712.152042,79.0129989 712.588208,79.4463705 C713.024373,79.8797421 713.352986,80.3824457 713.574057,80.9544962 C713.795127,81.5265467 713.90566,82.1245906 713.90566,82.7486457 C713.90566,82.9219944 713.896698,83.0982295 713.878774,83.2773564 C713.860849,83.4564834 713.839937,83.6153839 713.816038,83.7540628 L707.201887,83.7540628 C707.237736,84.239439 707.422954,84.5890202 707.757547,84.8028169 C708.09214,85.0166136 708.456602,85.1235103 708.850943,85.1235103 C709.221385,85.1235103 709.57091,85.0426155 709.899528,84.8808234 C710.228146,84.7190313 710.446226,84.4936815 710.553774,84.2047671 L713.439623,85.0021668 C713.057231,85.7302312 712.468715,86.3253859 711.674057,86.787649 C710.879399,87.249912 709.902522,87.4810401 708.743396,87.4810401 L708.743396,87.4810401 Z M710.249057,81.7778982 C710.189308,81.3387483 710.022014,80.9920562 709.74717,80.7378115 C709.472326,80.4835668 709.119813,80.3564464 708.689623,80.3564464 C708.259432,80.3564464 707.90692,80.4835668 707.632075,80.7378115 C707.357231,80.9920562 707.189937,81.3387483 707.130189,81.7778982 L710.249057,81.7778982 Z M724.499057,87.3076923 L721.093396,87.3076923 L721.093396,82.176598 C721.093396,81.7258916 720.988838,81.3994232 720.779717,81.1971831 C720.570596,80.994943 720.328618,80.8938245 720.053774,80.8938245 C719.76698,80.8938245 719.462266,81.0151667 719.139623,81.2578548 C718.81698,81.5005429 718.577988,81.8125658 718.422642,82.1939328 L718.422642,87.3076923 L715.016981,87.3076923 L715.016981,78.1895991 L718.082075,78.1895991 L718.082075,79.5417118 C718.416668,79.044779 718.885689,78.6663068 719.489151,78.4062839 C720.092613,78.1462609 720.8066,78.0162514 721.631132,78.0162514 C722.276418,78.0162514 722.787262,78.1289263 723.163679,78.3542795 C723.540096,78.5796328 723.826886,78.8598755 724.024057,79.1950163 C724.221227,79.530157 724.349685,79.8884055 724.409434,80.2697725 C724.469183,80.6511395 724.499057,80.9978316 724.499057,81.3098592 L724.499057,87.3076923 Z M732.762264,86.8049837 C732.284274,87.0014455 731.77343,87.1661243 731.229717,87.2990249 C730.686004,87.4319255 730.15126,87.4983749 729.625472,87.4983749 C729.24308,87.4983749 728.878618,87.4521493 728.532075,87.3596966 C728.185533,87.267244 727.883806,87.1170108 727.626887,86.9089924 C727.369967,86.700974 727.166825,86.4293986 727.017453,86.0942579 C726.868081,85.7591171 726.793396,85.3430866 726.793396,84.8461538 L726.793396,80.6684724 L725.628302,80.6684724 L725.628302,78.1895991 L726.793396,78.1895991 L726.793396,75.3293608 L730.199057,75.3293608 L730.199057,78.1895991 L732.045283,78.1895991 L732.045283,80.6684724 L730.199057,80.6684724 L730.199057,83.6847237 C730.199057,83.9851947 730.264779,84.1960991 730.396226,84.3174431 C730.527674,84.4387872 730.706917,84.4994583 730.933962,84.4994583 C731.101259,84.4994583 731.292452,84.4734564 731.507547,84.4214518 C731.722643,84.3694472 731.937735,84.2972197 732.15283,84.2047671 L732.762264,86.8049837 Z M737.261321,75 L740.451887,75 L744.861321,87.3076923 L741.312264,87.3076923 L740.541509,84.8981582 L737.153774,84.8981582 L736.400943,87.3076923 L732.833962,87.3076923 L737.261321,75 Z M739.985849,82.6446371 L738.856604,78.8309859 L737.673585,82.6446371 L739.985849,82.6446371 Z M752.031132,87.4810401 C751.349997,87.4810401 750.758493,87.3510306 750.256604,87.0910076 C749.754714,86.8309846 749.366354,86.4525124 749.091509,85.9555796 L749.091509,91 L745.685849,91 L745.685849,78.1895991 L748.643396,78.1895991 L748.643396,79.5590466 C748.977989,79.0621138 749.390249,78.6807525 749.880189,78.4149512 C750.370128,78.14915 750.973581,78.0162514 751.690566,78.0162514 C752.311953,78.0162514 752.891507,78.1347045 753.429245,78.3716143 C753.966984,78.6085241 754.427042,78.9349925 754.809434,79.3510293 C755.191826,79.767066 755.493552,80.2639913 755.714623,80.8418202 C755.935693,81.419649 756.046226,82.0436947 756.046226,82.7139762 C756.046226,83.3958142 755.944655,84.0285272 755.741509,84.6121343 C755.538364,85.1957415 755.257549,85.7013341 754.899057,86.1289274 C754.540564,86.5565207 754.116355,86.8887673 753.626415,87.1256771 C753.136476,87.362587 752.60472,87.4810401 752.031132,87.4810401 L752.031132,87.4810401 Z M750.848113,84.7074756 C751.099058,84.7074756 751.329087,84.6554718 751.538208,84.5514626 C751.747328,84.4474534 751.926572,84.3029984 752.075943,84.1180932 C752.225315,83.933188 752.344811,83.7193945 752.434434,83.4767064 C752.524057,83.2340183 752.568868,82.9739992 752.568868,82.6966414 C752.568868,82.1188126 752.398587,81.6565564 752.058019,81.3098592 C751.717451,80.9631619 751.266355,80.7898158 750.704717,80.7898158 C750.07138,80.7898158 749.53365,81.1018387 749.091509,81.7258938 L749.091509,83.3033586 C749.258806,83.7078388 749.503772,84.0429745 749.826415,84.3087757 C750.149058,84.574577 750.489621,84.7074756 750.848113,84.7074756 L750.848113,84.7074756 Z M763.628302,87.4810401 C762.947166,87.4810401 762.355663,87.3510306 761.853774,87.0910076 C761.351884,86.8309846 760.963523,86.4525124 760.688679,85.9555796 L760.688679,91 L757.283019,91 L757.283019,78.1895991 L760.240566,78.1895991 L760.240566,79.5590466 C760.575159,79.0621138 760.987419,78.6807525 761.477358,78.4149512 C761.967298,78.14915 762.570751,78.0162514 763.287736,78.0162514 C763.909123,78.0162514 764.488677,78.1347045 765.026415,78.3716143 C765.564154,78.6085241 766.024212,78.9349925 766.406604,79.3510293 C766.788996,79.767066 767.090722,80.2639913 767.311792,80.8418202 C767.532863,81.419649 767.643396,82.0436947 767.643396,82.7139762 C767.643396,83.3958142 767.541825,84.0285272 767.338679,84.6121343 C767.135534,85.1957415 766.854719,85.7013341 766.496226,86.1289274 C766.137734,86.5565207 765.713524,86.8887673 765.223585,87.1256771 C764.733645,87.362587 764.20189,87.4810401 763.628302,87.4810401 L763.628302,87.4810401 Z M762.445283,84.7074756 C762.696228,84.7074756 762.926257,84.6554718 763.135377,84.5514626 C763.344498,84.4474534 763.523741,84.3029984 763.673113,84.1180932 C763.822485,83.933188 763.941981,83.7193945 764.031604,83.4767064 C764.121227,83.2340183 764.166038,82.9739992 764.166038,82.6966414 C764.166038,82.1188126 763.995756,81.6565564 763.655189,81.3098592 C763.314621,80.9631619 762.863525,80.7898158 762.301887,80.7898158 C761.66855,80.7898158 761.13082,81.1018387 760.688679,81.7258938 L760.688679,83.3033586 C760.855976,83.7078388 761.100942,84.0429745 761.423585,84.3087757 C761.746228,84.574577 762.086791,84.7074756 762.445283,84.7074756 L762.445283,84.7074756 Z M772.769811,87.4810401 C771.945279,87.4810401 771.138683,87.3510306 770.35,87.0910076 C769.561317,86.8309846 768.892141,86.4525124 768.342453,85.9555796 L769.507547,83.979415 C770.093085,84.360782 770.657702,84.6554702 771.201415,84.8634886 C771.745129,85.071507 772.244023,85.1755146 772.698113,85.1755146 C773.176103,85.1755146 773.415094,85.0310596 773.415094,84.7421452 C773.415094,84.5803531 773.322485,84.4416763 773.137264,84.3261105 C772.952043,84.2105447 772.590569,84.0776461 772.05283,83.9274106 C771.383644,83.7425054 770.825002,83.560492 770.376887,83.3813651 C769.928771,83.2022382 769.56431,83.0086684 769.283491,82.8006501 C769.002672,82.5926317 768.802516,82.3615036 768.683019,82.1072589 C768.563521,81.8530143 768.503774,81.5525478 768.503774,81.2058505 C768.503774,80.7435874 768.59937,80.3160005 768.790566,79.9230769 C768.981762,79.5301533 769.24764,79.1892394 769.588208,78.900325 C769.928775,78.6114106 770.335061,78.3889499 770.807075,78.2329361 C771.27909,78.0769223 771.795909,77.9989166 772.357547,77.9989166 C773.050632,77.9989166 773.710846,78.0855896 774.338208,78.2589382 C774.965569,78.4322869 775.595909,78.7847572 776.229245,79.3163597 L774.938679,81.2925244 C774.353142,80.9227139 773.86321,80.6598058 773.468868,80.503792 C773.074526,80.3477782 772.70409,80.2697725 772.357547,80.2697725 C772.154402,80.2697725 771.987108,80.3073308 771.85566,80.3824485 C771.724213,80.4575663 771.658491,80.5760194 771.658491,80.7378115 C771.658491,80.9111601 771.754087,81.0527261 771.945283,81.1625135 C772.136479,81.272301 772.51289,81.3965324 773.074528,81.5352113 C773.755664,81.7085599 774.329243,81.8905733 774.795283,82.0812568 C775.261323,82.2719403 775.634747,82.4799555 775.915566,82.7053088 C776.196385,82.930662 776.39654,83.1849029 776.516038,83.468039 C776.635535,83.7511751 776.695283,84.0776435 776.695283,84.447454 C776.695283,84.9212736 776.605661,85.3430823 776.426415,85.7128927 C776.247169,86.0827032 775.987266,86.4005043 775.646698,86.6663055 C775.30613,86.9321068 774.89387,87.1343438 774.409906,87.2730228 C773.925941,87.4117017 773.379248,87.4810401 772.769811,87.4810401 L772.769811,87.4810401 Z" id="KontentApps"/>        </g>    </g></svg>